Release info:

General
Format                                   : Matroska
Format version                           : Version 4 / Version 2
File size                                : 687 MiB
Duration                                 : 1h 26mn
Overall bit rate mode                    : Variable
Overall bit rate                         : 1 112 Kbps
Movie name                               : Fun Size 2012 BRRip English

Video
ID                                       : 1
Format                                   : MPEG-4 Visual
Format profile                           : Advanced Simple@L5
Format settings, BVOP                    : Yes
Format settings, QPel                    : No
Format settings, GMC                     : No warppoints
Format settings, Matrix                  : Default (H.263)
Codec ID                                 : V_MS/VFW/FOURCC / XVID
Codec ID/Hint                            : XviD
Duration                                 : 1h 26mn
Bit rate                                 : 960 Kbps
Width                                    : 640 pixels
Height                                   : 272 pixels
Display aspect ratio                     : 2.35:1
Frame rate mode                          : Constant
Frame rate                               : 23.976 fps
Color space                              : YUV
Chroma subsampling                       : 4:2:0
Bit depth                                : 8 bits
Scan type                                : Progressive
Compression mode                         : Lossy
Bits/(Pixel*Frame)                       : 0.230
Stream size                              : 593 MiB (86%)
Title                                    : Fun Size 2012 BRRip English
Language                                 : English
Default                                  : Yes
Forced                                   : No

Audio
ID                                       : 2
Format                                   : MPEG Audio
Format version                           : Version 1
Format profile                           : Layer 3
Mode                                     : Joint stereo
Mode extension                           : MS Stereo
Codec ID                                 : A_MPEG/L3
Codec ID/Hint                            : MP3
Duration                                 : 1h 26mn
Bit rate mode                            : Variable
Bit rate                                 : 130 Kbps
Minimum bit rate                         : 32.0 Kbps
Channel(s)                               : 2 channels
Sampling rate                            : 48.0 KHz
Compression mode                         : Lossy
Stream size                              : 80.3 MiB (12%)
Title                                    : Fun Size 2012 BRRip English
Language                                 : English
Default                                  : Yes
Forced                                   : No



Source:
credit to original movie ripper (Thanks)

IMDB Info:

Wren's Halloween plans go awry when she's made to babysit her brother, who disappears into a sea of trick-or-treaters. With her best friend and two nerds at her side, she needs to find her brother before her mom finds out he's missing.

Director: Josh Schwartz
Writer: Max Werner
Stars: Victoria Justice, Johnny Knoxville, Chelsea Handler 

Genres: Comedy
 
http://www.imdb.com/title/tt1663143/

Screen Shot:
 
http://www.shotpix.com/images/42434551832337800946.png 
http://www.shotpix.com/images/53458624373120396707.png 
http://www.shotpix.com/images/88226110929734209558.png 
http://www.shotpix.com/images/02836584866341835895.png